# xmcd
#
# Track frame offsets:
#	150
#	14286
#	27415
#	38306
#	50423
#	62993
#	75701
#	86177
#	97348
#	108747
#	121041
#	131032
#	140465
#	151976
#
# Disc length: 2198 seconds
#
# Revision: 0
# Processed by: cddbd v1.5.2PL0 Copyright (c) Steve Scherf et al.
# Submitted via: EasyCDDAExtractor 15.3.0.1
#
DISCID=bb08940e
DTITLE=SLim Whitman - Greatest Country Hits
DYEAR=2009
DGENRE=Country
TTITLE0=Indian Love Call
TTITLE1=Love Song Of The Waterfall
TTITLE2=Keep It A Secret
TTITLE3=My Heart is Broken in Three
TTITLE4=North Wind
TTITLE5=Secret Love
TTITLE6=Rose-Marie
TTITLE7=Singing Hills
TTITLE8=Cattle Call
TTITLE9=More than Yesterday
TTITLE10=The Twelfth Of Never 
TTITLE11=I Remember You
TTITLE12=Rainbows Are Back in Style
TTITLE13=Guess Who
EXTD=
EXTT0=
EXTT1=
EXTT2=
EXTT3=
EXTT4=
EXTT5=
EXTT6=
EXTT7=
EXTT8=
EXTT9=
EXTT10=
EXTT11=
EXTT12=
EXTT13=
PLAYORDER=
